<svg width="640" height="480" xmlns="http://www.w3.org/2000/svg">
 <!-- Created with SVG-edit - http://svg-edit.googlecode.com/ -->
 <g>
  <title>Layer 1</title>
  <rect opacity="0.5" height="26" width="595.99999" y="326" x="19.00001" stroke-linecap="null" stroke-linejoin="null" stroke-dasharray="null" stroke-width="0" fill="#ffffaa" id="svg_55" stroke="#000000"/>
  <rect opacity="0.5" height="175" width="188.99998" y="125" x="225.00001" stroke-linecap="null" stroke-linejoin="null" stroke-dasharray="null" stroke-width="0" fill="#ffaaaa" id="svg_48" stroke="#000000"/>
  <rect opacity="0.5" id="svg_18" height="175" width="192.99999" y="127" x="16.00001" stroke-linecap="null" stroke-linejoin="null" stroke-dasharray="null" stroke-width="0" fill="#ffaaaa" stroke="#000000"/>
  <text xml:space="preserve" text-anchor="middle" font-family="serif" font-size="13" id="svg_37" y="295" x="115" stroke-linecap="null" stroke-linejoin="null" stroke-dasharray="null" stroke-width="0" stroke="#000000" fill="#000000">/home/vagrant/Code</text>
  <path stroke="#000000" fill="#bfbfbf" stroke-width="null" stroke-dasharray="null" stroke-linejoin="null" stroke-linecap="null" d="m290.20267,29.52953c-1.00409,0.00502 -1.97586,0.02256 -2.98633,0.04258c-16.14413,0.3133 -30.39606,2.31581 -37.63565,5.29831l-3.8364,2.25566c0.82745,-0.78196 2.09775,-1.54136 3.8364,-2.25566c-12.91121,-2.61407 -31.03117,-3.81959 -48.93677,-3.25568c-17.9054,0.56641 -33.45622,2.83715 -41.95332,6.12541c-23.99017,-2.88475 -53.89554,-2.71181 -77.0327,0.45615c-23.13387,3.16795 -35.46413,8.77452 -31.71764,14.43124l2.45068,2.30077c-1.10661,-0.75442 -1.9343,-1.52132 -2.45068,-2.30077l-0.37521,0.21303c-20.1091,0.42856 -36.60313,3.47621 -40.88523,7.55396c-4.28561,4.08026 4.62222,8.26573 22.06892,10.37357l27.23975,1.29322c-9.51091,0.15289 -19.00881,-0.29573 -27.23975,-1.29322c-13.45638,2.94492 -16.55171,7.30332 -7.67601,10.90489c8.8757,3.59899 27.83308,5.67171 47.39044,5.20304l11.88766,-0.61407c-3.82352,0.31074 -7.79778,0.51627 -11.88766,0.61407c11.10487,3.99249 29.51395,6.90482 51.1242,8.06272c21.61009,1.15788 44.56441,0.47375 63.70145,-1.89727c15.61493,4.80956 43.32663,7.33593 71.11456,6.48627c27.78839,-0.85213 50.71362,-4.93233 58.85489,-10.46879l2.82272,-3.09525c-0.42047,1.05011 -1.34094,2.08527 -2.82272,3.09525c19.11145,2.44872 43.1528,2.58649 62.90271,0.36092c19.75015,-2.22811 32.07056,-6.47376 32.25366,-11.09539l-7.07977,-6.90736l-27.89023,-4.67421c21.56494,2.63911 35.16263,6.65923 34.97006,11.58159c25.64224,0.05264 47.42554,-4.24063 57.19962,-9.16551c9.77362,-4.92738 6.07547,-10.54147 -9.70355,-14.75957c6.54712,-3.14286 6.15884,-6.71436 -1.06482,-9.79205c-7.22379,-3.07775 -20.54492,-5.36597 -36.57062,-6.26323c-3.58621,-4.07775 -18.36725,-7.3585 -37.90222,-8.43369c-19.53546,-1.0752 -40.33716,0.25063 -53.41501,3.41108l-7.94238,2.61905c2.02734,-0.94736 4.68008,-1.82959 7.94238,-2.61905c-9.21896,-2.48377 -23.68222,-3.88476 -38.7554,-3.79203l0,0l-0.00006,0.00001l0,0.00002l0,0.00001l-0.00003,0.00001l0,-0.00003l0.00003,0l0.00003,0z" id="svg_8"/>
  <g id="svg_17" stroke="null">
   <text fill="#ff7f00" stroke-width="0" stroke-dasharray="null" stroke-linejoin="null" stroke-linecap="null" opacity="0.75" x="284.81433" y="72.50883" id="svg_15" font-size="24" font-family="serif" text-anchor="middle" xml:space="preserve" transform="matrix(0.5135966305217856,0,0,0.7242144376176896,91.28795104516081,53.39699558148766) " stroke="#000000">REST</text>
   <path fill="#000000" stroke-width="null" stroke-dasharray="null" stroke-linejoin="null" stroke-linecap="null" opacity="0.75" d="m213.50137,92.51485c0.00156,-0.66582 0.53027,-4.74947 1.17435,-9.07465c2.00983,-13.48598 2.03992,-13.54517 4.5921,-9.24704l1.50964,2.54366l4.41524,-2.51682c5.83969,-3.32614 12.80876,-4.55658 19.21458,-3.39214c2.71831,0.49362 5.60303,1.29636 6.41179,1.78482c1.60254,0.96692 1.49927,1.80008 -1.05592,8.5323c-1.39893,3.68961 -1.53368,3.79433 -3.95264,3.09293c-4.11569,-1.19327 -10.81822,-0.81818 -14.05313,0.78947l-3.03456,1.50591l2.12982,2.50807c1.17134,1.37938 1.83475,2.7146 1.47525,2.96471c-0.36087,0.25182 -4.7449,0.74039 -9.74275,1.08861c-7.49771,0.52046 -9.0853,0.41911 -9.08388,-0.57982l0,0l0,0l0.00003,0l0.00003,-0.00002l0.00002,0.00001l0.00003,0zm38.61026,37.1844l-3.2486,-4.85431l2.95653,-3.2265c3.04486,-3.32294 5.23897,-7.98624 6.20656,-13.18515l0.55258,-2.96642l-3.18408,0.57476c-1.75078,0.31605 -3.19324,0.2737 -3.20659,-0.09127c-0.06145,-1.71043 8.26295,-18.55859 9.07179,-18.36245c1.27148,0.30748 14.17908,12.92319 14.17908,13.85799c0,0.41747 -1.35693,1.00401 -3.01514,1.30315l-3.01337,0.5442l-0.29803,5.8008c-0.38184,7.44022 -3.8551,16.02639 -8.69287,21.48576c-1.93646,2.18533 -3.86859,3.97363 -4.29095,3.97363c-0.42383,0 -2.23163,-2.18375 -4.01697,-4.85425l0,0l0,0l0,0.00003l0.00006,0l0,0.00002l0,0.00003l0,-0.00002zm-29.32117,13.60776c0,-0.53751 0.51056,-2.08911 1.13373,-3.44971c1.13231,-2.46936 1.12485,-2.48111 -3.09445,-5.64349c-6.59882,-4.94559 -11.50558,-13.72275 -13.04822,-23.34668l-0.5061,-3.15569l3.60654,-0.55936c7.4361,-1.14928 7.50369,-1.11548 8.99237,4.604c1.00497,3.8605 2.2421,6.17258 4.90656,9.17947c1.95901,2.21075 3.83424,3.82825 4.16966,3.59512c0.33411,-0.235 0.81937,-1.6125 1.07547,-3.0643c0.25751,-1.45204 0.79381,-2.64022 1.1922,-2.64022c0.9151,0 9.52869,15.32838 9.66498,17.19769c0.0914,1.25082 -4.56525,3.41409 -16.69995,7.76129c-0.77417,0.27551 -1.39272,0.06436 -1.39272,-0.47821l0,0l0,0.00003l0,0.00003l-0.00003,0.00003l-0.00003,0z" id="svg_13" stroke="#000000"/>
   <text fill="#ff7f00" stroke-width="0" stroke-dasharray="null" stroke-linejoin="null" stroke-linecap="null" opacity="0.75" x="284.81433" y="92.26555" font-size="24" font-family="serif" text-anchor="middle" xml:space="preserve" transform="matrix(0.5135966305217856,0,0,0.7242144376176896,91.28795104516081,53.39699558148766) " id="svg_16" stroke="#000000">API</text>
  </g>
  <g id="svg_12" stroke="null">
   <path fill="#ffaaaa" d="m81.411,234.47696c0,3.49725 -11.86427,6.33266 -26.49998,6.33266m26.49998,-6.33266l0,0c0,3.49725 -11.86427,6.33266 -26.49998,6.33266c-14.63532,0 -26.5,-2.8354 -26.5,-6.33266m0,0l0,0c0,-3.49815 11.86468,-6.33356 26.5,-6.33356c14.63573,0 26.49998,2.8354 26.49998,6.33356l0,25.33325c0,3.49731 -11.86427,6.33356 -26.49998,6.33356c-14.63532,0 -26.5,-2.83624 -26.5,-6.33356l0,-25.33325z" id="svg_1" stroke="#000000"/>
   <text fill="#000000" stroke-width="0" stroke-dasharray="null" stroke-linejoin="null" stroke-linecap="null" x="41.903" y="279.12278" id="svg_3" font-size="24" font-family="serif" text-anchor="middle" xml:space="preserve" opacity="0.75" transform="matrix(0.7162161469459534,0,0,0.7169830799102783,24.52205173981156,58.342174402940145) " stroke="#000000">SQL</text>
  </g>
  <g id="svg_22">
   <path fill="#aad4ff" stroke-dasharray="null" stroke-linejoin="null" stroke-linecap="null" d="m231.9863,274.68024l12.93744,-55.80554l43.12482,0l12.93747,55.80554l-68.99973,0z" stroke="#000000" id="svg_23"/>
   <text fill="#000000" stroke="#000000" stroke-width="0" stroke-dasharray="null" stroke-linejoin="null" stroke-linecap="null" opacity="0.75" x="268.11553" y="252.91528" font-size="24" font-family="serif" text-anchor="middle" xml:space="preserve" id="svg_24">js</text>
  </g>
  <g id="svg_11">
   <path fill="#aad4ff" stroke-dasharray="null" stroke-linejoin="null" stroke-linecap="null" d="m134.29346,277.65536l12.93744,-55.80554l43.12482,0l12.93747,55.80554l-68.99973,0z" id="svg_4" stroke="#000000"/>
   <text fill="#000000" stroke="#000000" stroke-width="0" stroke-dasharray="null" stroke-linejoin="null" stroke-linecap="null" opacity="0.75" x="169.93513" y="255.89041" id="svg_10" font-size="24" font-family="serif" text-anchor="middle" xml:space="preserve">php</text>
  </g>
  <g stroke="null" id="svg_9">
   <rect stroke="#000000" id="svg_2" height="43" width="152" y="145.88437" x="160.50891" opacity="0.75" stroke-linecap="null" stroke-linejoin="null" stroke-dasharray="null" stroke-width="null" fill="#bfbfbf"/>
   <text stroke="#000000" transform="matrix(1.6826593059819144,0,0,0.961789338273601,-163.5119642570623,28.266686526168566) " xml:space="preserve" text-anchor="middle" font-family="serif" font-size="24" id="svg_7" y="151.74882" x="238.70915" opacity="0.75" stroke-linecap="null" stroke-linejoin="null" stroke-dasharray="null" stroke-width="0" fill="#000000">HTTP</text>
  </g>
  <g id="svg_31" stroke="null">
   <path id="svg_27" d="m83.2937,239.82101l16.51575,-19.125l0,9.5625l23.93562,0l0,-9.5625l16.51579,19.125l-16.51579,19.125l0,-9.56253l-23.93562,0l0,9.56253l-16.51575,-19.125z" opacity="0.75" stroke-linecap="null" stroke-linejoin="null" stroke-dasharray="null" stroke-width="0" fill="#bfbfbf" stroke="#000000"/>
   <text transform="matrix(0.5091698328898886,0,0,0.702865600585938,10.369365498470348,157.12611722946167) " xml:space="preserve" text-anchor="middle" font-family="serif" font-size="24" id="svg_30" y="123.58735" x="197.42469" opacity="0.75" stroke-linecap="null" stroke-linejoin="null" stroke-dasharray="null" stroke-width="0" fill="#000000" stroke="#000000">scocket</text>
  </g>
  <path fill="#007fff" stroke-width="null" stroke-dasharray="null" stroke-linejoin="null" stroke-linecap="null" d="m304.29819,91.78196l0.39902,-4.25027l-4.69376,-0.73946c-11.88278,-1.87279 -23.53055,-9.81308 -30.01599,-20.4626c-1.16364,-1.91073 -1.94241,-3.75134 -1.73068,-4.09074c0.48566,-0.77808 12.3186,-6.9741 13.31915,-6.9741c0.40814,0 1.38892,1.13969 2.17923,2.53223c3.37027,5.94019 12.09302,12.13506 18.23438,12.9511l2.49002,0.33063l-0.42819,-3.6731c-0.4444,-3.8133 -0.31937,-4.61416 0.72012,-4.61416c0.66498,0 20.51001,14.64391 21.07736,15.55282c0.43027,0.68987 -2.29922,3.24844 -12.07181,11.31606c-4.24518,3.50485 -8.20404,6.37186 -8.79794,6.37186c-0.95044,0 -1.0321,-0.50882 -0.68091,-4.25023l0,0l0,-0.00001l0,-0.00002l0,-0.00001z" id="svg_68" transform="rotate(-153.243408203125 297.056854248047,75.64848327636719) " stroke="#000000"/>
  <text fill="#000000" stroke="#000000" stroke-width="0" stroke-dasharray="null" stroke-linejoin="null" stroke-linecap="null" x="564.61784" y="209.50691" font-size="18" font-family="serif" text-anchor="middle" xml:space="preserve" id="svg_80">Infrastructure</text>
  <g id="svg_77">
   <path stroke="#000000" id="svg_74" d="m317.66376,242.08875l-18.46994,0l-15.39047,16.125l15.39047,16.125l18.46994,0l0,-32.25z" stroke-linecap="null" stroke-linejoin="null" stroke-dasharray="null" stroke-width="null" fill="#ffd4aa"/>
   <text stroke="#000000" transform="matrix(0.8084087397617346,0,0,0.7962962985038757,79.73333873123875,77.68011390425818) " id="svg_69" xml:space="preserve" text-anchor="middle" font-family="serif" font-size="24" y="232.56977" x="275.61802" stroke-linecap="null" stroke-linejoin="null" stroke-dasharray="null" stroke-width="0" fill="#000000">css</text>
  </g>
  <text fill="#000000" stroke="#000000" stroke-width="0" stroke-dasharray="null" stroke-linejoin="null" stroke-linecap="null" x="178" y="141" id="svg_5" font-size="18" font-family="serif" text-anchor="middle" xml:space="preserve">80</text>
  <text fill="#000000" stroke="#000000" stroke-width="0" stroke-dasharray="null" stroke-linejoin="null" stroke-linecap="null" x="187" y="120" font-size="18" font-family="serif" text-anchor="middle" xml:space="preserve" id="svg_6">8000</text>
  <g stroke="null" id="svg_21">
   <rect stroke="#000000" height="29" width="38" y="145.63437" x="366.50892" opacity="0.75" stroke-linecap="null" stroke-linejoin="null" stroke-dasharray="null" stroke-width="null" fill="#bfbfbf" id="svg_19"/>
   <text stroke="#000000" transform="matrix(0.42066482649547865,0,0,0.6486486196517944,161.676113783889,64.56081613898277) " xml:space="preserve" text-anchor="middle" font-family="serif" font-size="24" y="154.44674" x="533.07079" opacity="0.75" stroke-linecap="null" stroke-linejoin="null" stroke-dasharray="null" stroke-width="0" fill="#000000" id="svg_20">SSH</text>
  </g>
  <text fill="#000000" stroke="#000000" stroke-width="0" stroke-dasharray="null" stroke-linejoin="null" stroke-linecap="null" x="386" y="142" font-size="18" font-family="serif" text-anchor="middle" xml:space="preserve" id="svg_28">22</text>
  <text fill="#000000" stroke="#000000" stroke-width="0" stroke-dasharray="null" stroke-linejoin="null" stroke-linecap="null" x="395" y="119" font-size="18" font-family="serif" text-anchor="middle" xml:space="preserve" id="svg_29">2221</text>
  <text fill="#000000" stroke="#000000" stroke-width="0" stroke-dasharray="null" stroke-linejoin="null" stroke-linecap="null" x="118" y="143" font-size="18" font-family="serif" text-anchor="middle" xml:space="preserve" id="svg_33">3306</text>
  <text fill="#000000" stroke="#000000" stroke-width="0" stroke-dasharray="null" stroke-linejoin="null" stroke-linecap="null" x="122" y="120" font-size="18" font-family="serif" text-anchor="middle" xml:space="preserve" id="svg_34">33060</text>
  <text id="svg_35" fill="#000000" stroke="#000000" stroke-width="0" stroke-dasharray="null" stroke-linejoin="null" stroke-linecap="null" x="568.61784" y="142.50691" font-size="18" font-family="serif" text-anchor="middle" xml:space="preserve">Homestead Ports</text>
  <text id="svg_36" fill="#000000" stroke="#000000" stroke-width="0" stroke-dasharray="null" stroke-linejoin="null" stroke-linecap="null" x="574.61784" y="117.50691" font-size="18" font-family="serif" text-anchor="middle" xml:space="preserve">Host Ports</text>
  <text id="svg_38" xml:space="preserve" text-anchor="middle" font-family="serif" font-size="13" y="317" x="84" stroke-linecap="null" stroke-linejoin="null" stroke-dasharray="null" stroke-width="0" stroke="#000000" fill="#000000">~/Desktop</text>
  <text id="svg_39" fill="#000000" stroke="#000000" stroke-width="0" stroke-dasharray="null" stroke-linejoin="null" stroke-linecap="null" x="219.61784" y="60.50691" font-size="18" font-family="serif" text-anchor="middle" xml:space="preserve">Network Ports</text>
  <text id="svg_40" fill="#000000" stroke="#000000" stroke-width="0" stroke-dasharray="null" stroke-linejoin="null" stroke-linecap="null" x="561.61784" y="183.50691" font-size="18" font-family="serif" text-anchor="middle" xml:space="preserve">Vagrant VBox</text>
  <text id="svg_41" fill="#000000" stroke="#000000" stroke-width="0" stroke-dasharray="null" stroke-linejoin="null" stroke-linecap="null" x="544.61784" y="318.50691" font-size="18" font-family="serif" text-anchor="middle" xml:space="preserve">Host File System</text>
  <path id="svg_42" d="m203.91745,292.59891c0.00122,-0.35767 0.32227,-2.55249 0.71289,-4.87915c1.21948,-7.25098 1.23718,-7.28271 2.78503,-4.97192l0.91675,1.36719l2.67883,-1.35132c3.54309,-1.78833 7.77161,-2.44995 11.65833,-1.82373c1.64978,0.26489 3.40027,0.69702 3.88977,0.95947c0.9729,0.52002 0.91064,0.96802 -0.63904,4.58618c-0.85022,1.98364 -0.93079,2.04102 -2.39868,1.66382c-2.49695,-0.64331 -6.56372,-0.43945 -8.52722,0.42358l-1.84082,0.81055l1.29211,1.34766c0.71045,0.74219 1.11328,1.45874 0.89478,1.59546c-0.21851,0.13428 -2.87842,0.39795 -5.91064,0.58472c-4.54956,0.27954 -5.51331,0.22583 -5.51207,-0.3125l0,0l-0.00002,0zm23.42651,19.99268l-1.97084,-2.60986l1.79382,-1.73584c1.84691,-1.78589 3.17873,-4.29199 3.76587,-7.0874l0.33507,-1.59546l-1.93117,0.30884c-1.06262,0.16971 -1.93788,0.14783 -1.94641,-0.04883c-0.03723,-0.91919 5.01344,-9.97925 5.50418,-9.87305c0.77205,0.16602 8.60353,6.94824 8.60353,7.45239c0,0.22339 -0.82336,0.53833 -1.82861,0.70068l-1.82983,0.29175l-0.17944,3.1189c-0.23253,4.00024 -2.33948,8.61694 -5.27466,11.55151c-1.17554,1.17554 -2.3468,2.13623 -2.60376,2.13623c-0.25696,0 -1.35376,-1.17432 -2.43774,-2.60986l0,0zm-17.79053,7.31689c0,-0.28931 0.30945,-1.12305 0.68787,-1.85547c0.68665,-1.32813 0.68237,-1.33423 -1.87683,-3.03345c-4.00452,-2.65869 -6.9812,-7.37793 -7.91687,-12.55371l-0.30762,-1.69678l2.18872,-0.29907c4.51111,-0.6189 4.55322,-0.59937 5.45593,2.47559c0.60973,2.0752 1.35985,3.31787 2.97606,4.9353c1.18895,1.18652 2.32788,2.05811 2.53052,1.93237c0.20265,-0.12573 0.49623,-0.86792 0.65309,-1.64795c0.15564,-0.78125 0.48157,-1.41968 0.72327,-1.41968c0.55481,0 5.78125,8.24219 5.86426,9.24805c0.05554,0.67139 -2.77039,1.8335 -10.13306,4.17114c-0.46936,0.14893 -0.84534,0.0354 -0.84534,-0.25635l0,0z" stroke-linecap="null" stroke-linejoin="null" stroke-dasharray="null" stroke-width="0" stroke="#000000" fill="#000000"/>
  <path id="svg_44" d="m502.875,403.125l0,-44.6875l0,0c0,-1.89847 3.3299,-3.4375 7.4375,-3.4375l89.25006,0c4.10754,0 7.43744,1.53903 7.43744,3.4375c0,1.8985 -3.3299,3.4375 -7.43744,3.4375l-7.43756,0l0,44.68753c0,1.89844 -3.3299,3.43747 -7.4375,3.43747l-89.25,0l0,0c-4.10764,0 -7.4375,-1.53903 -7.4375,-3.43747c0,-1.89853 3.3299,-3.43753 7.4375,-3.43753l7.4375,0zm14.875,-48.125l0,0c4.1076,0 7.4375,1.53903 7.4375,3.4375c0,1.8985 -3.3299,3.4375 -7.4375,3.4375c-2.05383,0 -3.71875,-0.7695 -3.71875,-1.71875c0,-0.94922 1.66492,-1.71875 3.71875,-1.71875l7.4375,0m74.37506,3.4375l-81.81256,0m-14.875,41.25l0,0c2.0538,0 3.71875,0.76953 3.71875,1.71875c0,0.94922 -1.66495,1.71878 -3.71875,1.71878l7.4375,0m-7.4375,3.43747l0,0c4.1076,0 7.4375,-1.53903 7.4375,-3.43747l0,-3.43753" stroke-linecap="null" stroke-linejoin="null" stroke-dasharray="null" stroke-width="2" fill="#ffffaa" stroke="#000000"/>
  <text id="svg_46" fill="#000000" stroke="#000000" stroke-width="0" stroke-dasharray="null" stroke-linejoin="null" stroke-linecap="null" x="546.61784" y="390.50691" font-size="18" font-family="serif" text-anchor="middle" xml:space="preserve">Host IDE</text>
  <g id="svg_14">
   <rect height="29" width="58" y="146.63437" x="25.50892" opacity="0.75" stroke-linecap="null" stroke-linejoin="null" stroke-dasharray="null" stroke-width="null" stroke="#000000" fill="#bfbfbf" id="svg_25"/>
   <text stroke="#000000" transform="matrix(0.6420673727989197,0,0,0.6486486196517944,33.869374848902225,64.56081613898277) " xml:space="preserve" text-anchor="middle" font-family="serif" font-size="24" y="155.9884" x="33.12325" opacity="0.75" stroke-linecap="null" stroke-linejoin="null" stroke-dasharray="null" stroke-width="0" fill="#000000" id="svg_26">SSH</text>
  </g>
  <text fill="#000000" stroke="#000000" stroke-width="0" stroke-dasharray="null" stroke-linejoin="null" stroke-linecap="null" x="52" y="143" font-size="18" font-family="serif" text-anchor="middle" xml:space="preserve" id="svg_32">22</text>
  <text fill="#000000" stroke="#000000" stroke-width="0" stroke-dasharray="null" stroke-linejoin="null" stroke-linecap="null" x="61" y="119" font-size="18" font-family="serif" text-anchor="middle" xml:space="preserve" id="svg_43">2222</text>
  <text style="cursor: move;" fill="#000000" stroke="#000000" stroke-width="0" stroke-dasharray="null" stroke-linejoin="null" stroke-linecap="null" x="292" y="141" font-size="18" font-family="serif" text-anchor="middle" xml:space="preserve" id="svg_45">8100</text>
  <text fill="#000000" stroke="#000000" stroke-width="0" stroke-dasharray="null" stroke-linejoin="null" stroke-linecap="null" x="292" y="119" font-size="18" font-family="serif" text-anchor="middle" xml:space="preserve" id="svg_47">8100</text>
  <text style="cursor: move;" xml:space="preserve" text-anchor="middle" font-family="serif" font-size="13" y="297" x="318" stroke-linecap="null" stroke-linejoin="null" stroke-dasharray="null" stroke-width="0" stroke="#000000" fill="#000000" id="svg_49">/home/vagrant</text>
  <text xml:space="preserve" text-anchor="middle" font-family="serif" font-size="13" y="317" x="286" stroke-linecap="null" stroke-linejoin="null" stroke-dasharray="null" stroke-width="0" stroke="#000000" fill="#000000" id="svg_50">~/Desktop</text>
  <line fill="none" stroke-dasharray="null" stroke-linejoin="null" stroke-linecap="null" x1="19" y1="125" x2="616.00003" y2="124" id="svg_51" stroke-width="4" stroke="#000000"/>
  <text style="cursor: move;" xml:space="preserve" text-anchor="middle" font-family="serif" font-size="13" y="208" x="320" stroke-linecap="null" stroke-linejoin="null" stroke-dasharray="null" stroke-width="0" stroke="#000000" fill="#000000" id="svg_52">/home/vagrant/catapp</text>
  <text style="cursor: move;" xml:space="preserve" text-anchor="middle" font-family="serif" font-size="13" y="206" x="112" stroke-linecap="null" stroke-linejoin="null" stroke-dasharray="null" stroke-width="0" stroke="#000000" fill="#000000" id="svg_53">/home/vagrant/Code/projectRESTapi</text>
  <text style="cursor: move;" xml:space="preserve" text-anchor="middle" font-family="serif" font-size="13" y="343" x="104" stroke-linecap="null" stroke-linejoin="null" stroke-dasharray="null" stroke-width="0" stroke="#000000" fill="#000000" id="svg_54">~/Destop/projectRESTapi</text>
  <text style="cursor: move;" xml:space="preserve" text-anchor="middle" font-family="serif" font-size="13" y="343" x="313" stroke-linecap="null" stroke-linejoin="null" stroke-dasharray="null" stroke-width="0" stroke="#000000" fill="#000000" id="svg_56">~/Destop/catonic/catapp</text>
  <text style="cursor: move;" xml:space="preserve" text-anchor="middle" font-family="serif" font-size="13" y="343" x="543" stroke-linecap="null" stroke-linejoin="null" stroke-dasharray="null" stroke-width="0" stroke="#000000" fill="#000000" id="svg_57">~/Destop/catonic</text>
  <path fill="#000000" stroke-width="2" stroke-dasharray="null" stroke-linejoin="null" stroke-linecap="null" d="m58.98148,386.95001c-6.13229,1.0578 -8.16744,5.87253 -8.24669,8.6221c3.37437,0.22861 5.48076,-1.55615 6.34233,-2.60162c1.40368,-1.48132 1.74591,-3.56747 1.90452,-6.02048l-0.00016,0zm0.75277,9.50888c-4.43275,-0.00287 -6.90706,1.69598 -8.12724,1.71484c-1.39981,-0.10269 -5.47967,-1.63998 -7.85825,-1.66498c-8.33056,0.23282 -10.7174,8.71921 -10.61418,12.36859c0.67873,13.97003 9.77166,17.57568 11.25764,17.91309c1.19192,0.22076 5.21066,-1.72162 8.16705,-1.63388c3.22789,0.3157 5.48344,1.57101 6.7795,1.48203c1.63963,-0.10687 6.98841,-4.15875 8.60065,-10.40161c-3.2507,-2.57797 -5.25587,-4.91187 -5.4355,-7.12909c-0.08321,-1.0018 1.52445,-6.66547 4.08787,-8.25751c0.36992,-1.95758 -3.43746,-4.44135 -6.4222,-4.38535c-0.14716,-0.00412 -0.29231,-0.00613 -0.43534,-0.00613l0,0z" id="svg_58" fill-opacity="0" stroke="#000000"/>
  <path fill="#000000" stroke="#000000" stroke-width="2" stroke-dasharray="null" stroke-linejoin="null" stroke-linecap="null" fill-opacity="0" d="m73.89005,428.97339l10.99831,-10.99841l11.00018,10.99841l-11.00018,10.99948l-10.99831,-10.99948zm-12.38505,12.45676l11.00011,-10.99948l10.99841,10.99948l-10.99841,10.99985l-11.00011,-10.99985zm25.00344,0.22519l11.00018,-10.99698l10.99638,10.99698l-10.99638,11.00021l-11.00018,-11.00021zm-12.381,12.45749l10.99653,-10.99878l10.99994,10.99878l-10.99994,10.99841l-10.99653,-10.99841z" id="svg_59"/>
  <path fill="#000000" stroke-width="2" stroke-dasharray="null" stroke-linejoin="null" stroke-linecap="null" fill-opacity="0" d="m149.88492,394.78531c-3.98047,0 -7.22681,3.06772 -7.22681,6.82751s3.24634,6.82751 7.22681,6.82751c3.98047,0 7.22681,-3.06772 7.22681,-6.82751s-3.24634,-6.82751 -7.22681,-6.82751zm18.33041,6.79517c-0.51021,-2.55856 -1.47661,-4.29288 -2.38774,-5.61926c0.06911,0.18143 0.1244,0.36429 0.19078,0.54572c-3.23526,-8.93878 -16.18184,-13.78433 -26.18214,-7.6377c-0.07742,0.37976 -0.10092,0.75674 -0.10092,1.13089c0,-0.07175 -0.0083,-0.13785 -0.00554,-0.211c-2.40985,-0.18848 -5.32849,2.89896 -7.92363,8.55621c-1.31761,3.20279 -1.7946,6.70938 -0.57239,10.8208c0.71341,2.39963 1.83609,4.86115 3.45508,6.77127c4.799,5.66428 12.15022,7.97531 16.43074,6.80078c0.00554,0.0014 0.01245,0.00424 0.01935,0.00565c8.2527,-0.17584 14.50894,-5.94702 16.76393,-13.45953c0.81158,-2.71188 0.86414,-4.93146 0.31248,-7.70383zm-32.47986,13.43842c-1.3273,-1.56409 -2.42647,-3.72882 -3.17859,-6.26205c-1.01344,-3.40393 -0.84616,-6.54059 0.52402,-9.86716c1.39087,-3.02838 2.74858,-5.01865 3.91687,-6.21567c0.20738,1.0437 0.72034,2.28992 1.53882,3.72601c0.30142,0.53311 0.63461,0.98602 0.95676,1.42349c0.24748,0.33334 0.4922,0.66669 0.70927,1.02539c0.17145,0.28412 0.33043,0.62592 0.48943,1.03662c-0.33043,3.87372 1.23329,7.22702 4.35242,9.39453l-3.5201,3.16483l-0.27927,0.24051c-0.28758,0.24054 -0.61801,0.52466 -0.90007,0.82849c-1.88033,2.0311 -0.34566,3.98199 0.39542,4.9202l0.09401,0.12238c0.32768,0.41785 0.70929,0.87207 1.12683,1.31943c-2.18866,-1.0802 -4.38422,-2.68381 -6.22581,-4.8569l0,-0.00003l0,-0.00003l0,-0.00003zm30.84697,-6.14673c-2.2121,7.35922 -8.20839,12.23724 -15.30527,12.46085c-3.43573,-0.82001 -6.03087,-2.50366 -7.72316,-5.00311c0.00554,-0.00568 0.01384,-0.0112 0.02074,-0.01828l6.83554,-5.39563c3.07765,-0.1745 5.32852,-1.24899 6.70143,-3.20416c1.68953,-1.98608 2.47757,-4.25491 2.3407,-6.83737c2.51216,0.53027 4.68562,1.27014 6.71249,2.64859l0.16037,0.10971l0.18529,0.06049c0.21568,0.06894 0.42999,0.1069 0.63461,0.11392c0.1507,1.74417 -0.02902,3.28156 -0.56274,5.06509l0,-0.00003l0,-0.00003l0,-0.00003zm0.35257,-6.51666c-2.69742,-1.83698 -5.61609,-2.6261 -9.11678,-3.21405c0.73415,3.31674 -0.11615,5.7276 -1.83331,7.75305c-1.21945,1.73715 -3.29335,2.56281 -6.07512,2.63736l-7.21713,5.69946c-0.68715,0.57526 -0.81712,1.15198 -0.38991,1.72867c1.17383,1.7962 2.66702,3.09729 4.31647,4.04813c-0.01797,0 -0.03595,0.00281 -0.05392,0.00424c-0.00139,-0.00143 -0.00554,-0.00284 -0.0083,-0.00565c-0.02765,0.00421 -0.05669,0.00565 -0.08572,0.00702c-0.1106,0.0014 -0.22121,-0.00137 -0.33043,-0.01407c-0.21567,-0.02951 -0.4341,-0.09 -0.6346,-0.16595c-1.24156,-0.46838 -2.61311,-1.90167 -3.59059,-3.14932c-0.80327,-1.02673 -1.66739,-2.01563 -0.56824,-3.19998c0.35669,-0.38388 0.80466,-0.7229 1.09084,-0.98175l3.48553,-3.13519c0.23781,-0.19272 0.48389,-0.38962 0.73969,-0.595c0.07327,-0.05908 0.14793,-0.11813 0.22398,-0.17862c0.7798,-0.62173 0.6678,-0.4501 -0.14932,-0.90311c-3.3445,-1.85669 -5.08379,-5.08331 -4.63721,-8.98654c-0.20602,-0.57669 -0.43829,-1.11401 -0.7162,-1.58099c-0.50188,-0.84393 -1.15308,-1.55005 -1.65082,-2.42355c-1.24432,-2.18863 -2.55363,-5.48843 0.01797,-5.17902c-0.00691,-0.07455 -0.00276,-0.15472 -0.00691,-0.23068c0.12996,2.81458 2.10983,5.37735 2.40848,6.87537c0.10785,0.53732 0.40648,0.99164 0.84615,0.39383c3.50903,-4.77533 8.39096,-4.29428 11.51425,-1.8454c0.61247,0.47821 0.94568,1.06195 1.49872,1.56128c0.21295,0.19412 0.45352,0.36429 0.7397,0.49368c1.02728,0.46701 2.49838,0.43887 3.6044,0.6105c1.89557,0.29254 3.74272,0.65265 5.49031,1.14212c0.34564,0.04221 0.58621,-0.00571 0.72032,-0.14206c0.29172,-0.29257 -0.00279,-1.24762 -0.16731,-1.77649c0.38298,1.13217 0.74109,2.26309 1.06877,3.39685c0.2502,0.88333 0.19078,1.59647 -0.53372,1.35596l-0.00003,-0.00003l0,-0.00003l0,-0.00003z" id="svg_63" stroke="#000000"/>
  <path fill="#000000" stroke-width="2" stroke-dasharray="null" stroke-linejoin="null" stroke-linecap="null" fill-opacity="0" d="m197.34462,449.35007c0.69472,-1.39139 1.23425,-2.87375 1.58815,-4.42538c1.38219,-5.28415 0.96594,-9.89282 0.96594,-9.89282l-0.47429,3.03687c0,0 -0.68022,-5.62329 -1.51414,-7.72635c-1.2778,-3.22006 -1.84633,-3.19562 -1.84779,-3.18982c0.7861,1.99042 0.71649,3.13071 0.70056,3.3024c-0.01454,-0.02307 -0.02757,-0.04611 -0.03917,-0.06784c-0.19,-0.46759 -1.15593,-2.62549 -3.22705,-4.15393c-3.62883,-3.58096 -8.61955,-5.79367 -14.13382,-5.7952c-5.88272,0 -11.17508,2.51868 -14.84886,6.53125c-0.46411,-0.66824 -0.84268,-1.47946 -0.87747,-2.37576c0,0 -0.0029,0.00293 -0.0087,0.00717c0,-0.01587 -0.00435,-0.03018 -0.00435,-0.04474c0,0 -2.33508,1.79993 -2.08273,6.6568c-0.43364,0.82852 -0.81221,1.69165 -1.12694,2.58508c-0.54387,1.17923 -1.08777,2.89249 -1.53592,5.40686c0,0 0.19289,-0.60913 0.57869,-1.42606c-0.09282,0.69571 -0.14938,1.40152 -0.16824,2.11743c-0.13054,1.21964 -0.17116,2.69183 -0.05658,4.45709c0,0 0.04643,-0.586 0.19725,-1.47366c1.20961,9.89282 9.6696,17.55853 19.9324,17.55853l0,0c2.69765,0 5.27353,-0.53406 7.62314,-1.4953c5.33879,-1.93991 8.49768,-5.65659 10.35994,-9.59262l-0.00002,0zm-17.98163,-27.58707c3.54759,0 6.86021,0.98151 9.68843,2.68466c-3.29813,-0.76208 -4.9791,-0.37671 -4.9646,-0.35794c0.01886,0.02164 4.90804,0.85016 5.77391,2.03656c0,0 -2.07547,0 -4.14226,0.5918c-0.09427,0.02744 7.60283,0.95697 9.17647,8.61111c0,0 -0.8441,-1.75079 -1.88692,-2.04959c0.68604,2.07703 0.50905,6.01886 -0.14505,7.97894c-0.08412,0.25116 -0.17114,-1.08972 -1.45616,-1.66708c0.4119,2.94012 -0.02611,7.60364 -2.0769,8.88824c-0.15811,0.10101 1.28645,-4.60291 0.2915,-2.78571c-5.93634,9.05856 -12.99385,3.66473 -15.85831,1.74359c2.29883,0.56003 4.73836,0.15585 6.15244,-0.80682c1.42427,-0.96994 2.2684,-1.67719 3.02693,-1.5112c0.7571,0.16888 1.26183,-0.58746 0.67296,-1.25864c-0.58739,-0.67261 -2.01891,-1.59491 -3.95224,-1.09262c-1.36336,0.35651 -3.05591,1.85757 -5.63611,0.3363c-2.20164,-1.2977 -2.1857,-2.35269 -2.1857,-3.02383c0,-0.52826 0.37274,-1.2702 1.06456,-1.48383c0.84122,0.08951 1.51418,0.3089 2.22922,0.67264c0.00723,-0.19485 0.0087,-0.45465 -0.00146,-0.74911c0.05658,-0.11111 0.02176,-0.44888 -0.06815,-0.86023c-0.05223,-0.41425 -0.1407,-0.84006 -0.27559,-1.2283c0.01451,-0.0029 0.02466,-0.01013 0.03046,-0.0303c0.11023,-0.49652 3.11395,-2.22858 3.33441,-2.39456c0.22189,-0.16455 0.7977,-0.54559 0.73387,-1.70749c-0.02174,-0.38251 -0.08412,-0.42435 -3.23721,-0.41284c-1.33,0.00436 -2.06677,-1.29034 -2.30463,-1.79697c0.32199,-1.77679 1.25166,-3.0455 2.78325,-3.90286c0.02901,-0.01587 0.02174,-0.0303 -0.01161,-0.03897c0.31764,-0.18332 -3.66072,-0.00867 -5.45338,2.31516c-0.48006,0.06784 -1.13997,-0.06927 -1.87819,-0.06927c-0.92534,0 -1.65196,0.10104 -2.32495,0.2699c-0.07253,0.0188 -0.17696,0.0159 -0.30168,-0.00134c-0.18854,-0.13858 -0.46991,-0.3696 -0.77449,-0.66977c0.23352,-0.25986 0.46991,-0.51379 0.71791,-0.75925c3.39532,-3.38037 8.07855,-5.46893 13.25929,-5.47037l-0.00002,0z" id="svg_65" stroke="#000000"/>
  <path fill="#000000" stroke="#000000" stroke-width="2" stroke-dasharray="null" stroke-linejoin="null" stroke-linecap="null" fill-opacity="0" d="m221.60504,388.23764c-2.49335,-2.24585 -8.13989,0.44461 -11.25735,2.26709c-0.89337,-0.14349 -1.82959,-0.22247 -2.80542,-0.22247c-3.93904,0 -7.11385,1.16235 -9.5282,3.34369c-2.74805,2.51819 -4.26903,5.8114 -4.26903,9.6142c0,0.03577 0,0.06485 0,0.10056c3.86354,-6.0556 9.80794,-9.16232 11.383,-9.98035c0.24736,-0.11462 0.39806,0.18646 0.16498,0.30139c-0.01805,0.05008 -0.01805,0 0,0c-2.6512,1.58551 -7.56232,6.17776 -10.75162,12.79303l-0.00357,-0.00717c-2.01973,4.16864 -3.7238,10.03027 -0.31223,12.17572c2.57951,1.62857 7.20369,-0.28708 10.92386,-2.72665c0.90042,0.12933 1.84398,0.19385 2.84135,0.19385c6.86249,0 11.68076,-3.78842 13.39908,-9.31271l-9.43149,-0.01498c-0.39453,1.952 -1.71838,2.99237 -3.78824,2.99237c-2.59735,0 -4.38403,-1.4209 -4.49878,-4.71378l17.90143,-0.01477c0.03223,-0.68124 -0.05035,-1.16202 -0.05035,-1.69284c0,-6.17078 -3.69492,-10.99213 -9.70377,-12.53464c2.44655,-1.52118 7.02051,-3.76703 9.2269,-1.97333c1.65358,1.34192 0.7424,4.15442 0.3443,5.30951c-0.06473,0.30145 0.28336,0.35153 0.34796,0.07156c0.82504,-2.08789 1.07617,-4.87878 -0.13281,-5.96927zm-17.31299,27.51553c-2.90213,1.73636 -6.90213,2.98483 -8.86098,1.51404c-1.46016,-1.09775 -0.81793,-4.07547 0.46631,-6.98105c0.78209,1.16928 1.75795,2.21667 2.90944,3.09207c1.55342,1.16956 3.37949,1.95898 5.48523,2.37494zm-0.65311,-14.84467c0.0468,-2.86301 2.09894,-4.10413 4.25122,-4.10413c2.26732,0 4.10056,1.30588 4.10056,4.10413l-8.35178,0z" id="svg_66"/>
  <path fill="#000000" stroke="#000000" stroke-width="2" stroke-dasharray="null" stroke-linejoin="null" stroke-linecap="null" fill-opacity="0" d="m225.33397,424.53302c-0.71382,0 -1.41631,0.04391 -2.10748,0.1261l-0.05098,-0.25497c-0.02974,-0.14728 -0.08499,-0.28043 -0.15863,-0.40082c0.53961,-0.43622 0.88519,-1.1019 0.88519,-1.84973c0,-1.31293 -1.06366,-2.37659 -2.37659,-2.37659s-2.3766,1.06366 -2.3766,2.37659c0,1.05518 0.68689,1.94888 1.63867,2.25906c-0.02972,0.14871 -0.02972,0.30591 0,0.46457l0.04675,0.23651c-7.55188,1.98993 -13.1223,8.86481 -13.1223,17.04269c0,9.7316 7.89037,17.62057 17.62195,17.62057c9.73164,0 17.62056,-7.88898 17.62056,-17.62057c0.00142,-9.733 -7.88895,-17.62341 -17.62056,-17.62341l0.00002,0zm0.30453,4.19943c6.30974,0 11.58983,4.4133 12.92117,10.3208l-0.81581,0.33142c-0.20961,-0.96451 -1.06932,-1.68683 -2.09616,-1.68683c-1.1855,0 -2.14717,0.96167 -2.14717,2.14716c0,0.1062 0.01135,0.20959 0.02551,0.31302l-3.92465,-0.03967c-0.07649,-0.1629 -0.16147,-0.3201 -0.25778,-0.47165l4.8141,-7.23746l0.07791,-0.11755l-6.75023,5.7489c-0.49858,-0.22238 -1.04808,-0.35126 -1.62596,-0.36258l0.12181,-0.02551l-1.66702,-3.66119c0.90643,-0.2507 1.57353,-1.08066 1.57353,-2.06644c0,-1.18546 -0.96028,-2.14575 -2.14717,-2.14575c-0.1062,0 -0.20819,0.00992 -0.31015,0.02551l0.08214,-0.89795c0.69258,-0.11615 1.40216,-0.17422 2.12593,-0.17422zm-5.98117,-6.57886c0,-1.02966 0.83705,-1.86673 1.86673,-1.86673c1.02966,0 1.86671,0.83707 1.86671,1.86673c0,0.60196 -0.28752,1.13589 -0.73083,1.47723c-0.25919,-0.17419 -0.58495,-0.24927 -0.91637,-0.18411c-0.32008,0.06372 -0.58496,0.24643 -0.75775,0.49429c-0.76764,-0.23227 -1.32852,-0.94611 -1.32852,-1.78741l0.00003,0zm-7.26434,19.82437c0,-6.29272 4.38779,-11.56149 10.27121,-12.91125l0.42065,0.81155c-0.86395,0.27759 -1.48857,1.08774 -1.48857,2.04236c0,1.18546 0.96028,2.14716 2.14572,2.14716c0.0963,0 0.19122,-0.00851 0.28325,-0.02124l-0.08214,4.02945l0.07364,-0.01556c-0.62601,0.28891 -1.16704,0.72656 -1.5806,1.26761l0.13173,-0.20819l-2.22931,-0.85406l1.65993,1.75482l0.03682,-0.05948c-0.26909,0.52545 -0.43338,1.11609 -0.45885,1.74069l-0.00427,-0.02267l-3.71504,1.71234c-0.28185,-0.85547 -1.08632,-1.4744 -2.03667,-1.4744c-1.18547,0 -2.14717,0.96027 -2.14717,2.14716c0,0.09064 0.0071,0.18127 0.01842,0.27051l-1.10898,-0.10764c-0.12463,-0.73083 -0.18977,-1.48148 -0.18977,-2.24915zm13.24551,13.24695c-6.27295,0 -11.52611,-4.35947 -12.89709,-10.21317l0.97865,-0.49997c0.2068,0.97162 1.0665,1.69962 2.09901,1.69962c1.18547,0 2.14574,-0.9617 2.14574,-2.14716c0,-0.14871 -0.01558,-0.29318 -0.0439,-0.43481l4.04787,0.04248c0.06372,0.13455 0.13596,0.26486 0.21245,0.39093l-4.88634,7.47397l0.3215,-0.27618l6.41455,-5.55203c0.47589,0.21671 0.99852,0.35126 1.54947,0.37674l-0.0269,0.00568l1.73643,3.7207c-0.92773,0.23514 -1.61749,1.07642 -1.61749,2.07916c0,1.18549 0.96028,2.14575 2.14717,2.14575c0.10765,0 0.21387,-0.00992 0.31871,-0.02548l0.00565,0.9744c-0.81017,0.15582 -1.64719,0.23938 -2.50548,0.23938zm3.24765,-0.40222l-0.55096,-0.84979c0.93619,-0.2323 1.63161,-1.07501 1.63161,-2.08203c0,-1.18546 -0.9631,-2.14716 -2.14716,-2.14716c-0.09348,0 -0.18413,0.00711 -0.27335,0.01984l0,-4.05069l-0.03543,0.00565c0.57927,-0.26202 1.09059,-0.65009 1.49423,-1.13025l2.14717,0.93338l-1.56364,-1.84689c0.22377,-0.47446 0.36258,-0.9971 0.39375,-1.5509l3.61447,-1.64859c0.26909,0.87531 1.0849,1.51263 2.04944,1.51263c1.18686,0 2.14714,-0.96167 2.14714,-2.14716c0,-0.09772 -0.0085,-0.19403 -0.02269,-0.28891l0.92064,0.16995c0.12604,0.73224 0.19261,1.48575 0.19261,2.25339c0.00142,6.19785 -4.25183,11.40002 -9.99786,12.84753l0.00003,0z" id="svg_70"/>
  <path fill="#ffffaa" stroke-width="3" stroke-dasharray="null" stroke-linejoin="null" stroke-linecap="null" d="m364.12933,403.99811l68.65564,0l57.21292,28l-57.21292,28l-68.65564,0l0,-56z" id="svg_71" stroke="#000000"/>
  <path fill="#ffffaa" stroke-dasharray="null" stroke-linejoin="null" stroke-linecap="null" d="m418.10498,361.905l-49.28802,0l-41.07324,19l41.07324,18.99997l49.28802,0l0,-37.99997z" id="svg_72" stroke="#000000"/>
  <text fill="#000000" stroke="#000000" stroke-width="0" stroke-dasharray="null" stroke-linejoin="null" stroke-linecap="null" x="456" y="119" font-size="18" font-family="serif" text-anchor="middle" xml:space="preserve" id="svg_73">4444</text>
  <text fill="#000000" stroke="#000000" stroke-width="0" stroke-dasharray="null" stroke-linejoin="null" stroke-linecap="null" x="451" y="383" font-size="18" font-family="serif" text-anchor="middle" xml:space="preserve" id="svg_75">4444</text>
  <text xml:space="preserve" text-anchor="middle" font-family="serif" font-size="13" y="385" x="385" stroke-linecap="null" stroke-linejoin="null" stroke-dasharray="null" stroke-width="0" stroke="#000000" fill="#000000" id="svg_76">webdriver</text>
  <text xml:space="preserve" text-anchor="middle" font-family="serif" font-size="13" y="379" x="180" stroke-linecap="null" stroke-linejoin="null" stroke-dasharray="null" stroke-width="0" stroke="#000000" fill="#000000" id="svg_78">Browsers</text>
  <text xml:space="preserve" text-anchor="middle" font-family="serif" font-size="13" y="419" x="400" stroke-linecap="null" stroke-linejoin="null" stroke-dasharray="null" stroke-width="0" stroke="#000000" fill="#000000" id="svg_79">feature file</text>
  <text xml:space="preserve" text-anchor="middle" font-family="serif" font-size="13" y="432" x="394" stroke-linecap="null" stroke-linejoin="null" stroke-dasharray="null" stroke-width="0" stroke="#000000" fill="#000000" id="svg_81">Scripted</text>
  <text xml:space="preserve" text-anchor="middle" font-family="serif" font-size="13" y="432" x="441" stroke-linecap="null" stroke-linejoin="null" stroke-dasharray="null" stroke-width="0" stroke="#000000" fill="#000000" id="svg_82">Visual</text>
  <text xml:space="preserve" text-anchor="middle" font-family="serif" font-size="13" y="445" x="403" stroke-linecap="null" stroke-linejoin="null" stroke-dasharray="null" stroke-width="0" stroke="#000000" fill="#000000" id="svg_83">Automation</text>
  <text xml:space="preserve" text-anchor="middle" font-family="serif" font-size="13" y="380" x="58" stroke-linecap="null" stroke-linejoin="null" stroke-dasharray="null" stroke-width="0" stroke="#000000" fill="#000000" id="svg_84">Platforms</text>
  <text xml:space="preserve" text-anchor="middle" font-family="serif" font-size="13" y="419" x="295" stroke-linecap="null" stroke-linejoin="null" stroke-dasharray="null" stroke-width="0" stroke="#000000" fill="#000000" id="svg_85">Under Test</text>
  <text xml:space="preserve" text-anchor="middle" font-family="serif" font-size="13" y="402" x="288" stroke-linecap="null" stroke-linejoin="null" stroke-dasharray="null" stroke-width="0" stroke="#000000" fill="#000000" id="svg_86">Browser</text>
  <text id="svg_60" fill="#000000" stroke="#000000" stroke-width="0" stroke-dasharray="null" stroke-linejoin="null" stroke-linecap="null" x="342" y="119" font-size="18" font-family="serif" text-anchor="middle" xml:space="preserve">35729</text>
  <text id="svg_61" fill="#000000" stroke="#000000" stroke-width="0" stroke-dasharray="null" stroke-linejoin="null" stroke-linecap="null" x="342" y="143" font-size="18" font-family="serif" text-anchor="middle" xml:space="preserve">35729</text>
 </g>
</svg>